<?xml version="1.0" standalone="no"?>
<!DOCTYPE svg PUBLIC "-//W3C//DTD SVG 20010904//EN"
 "http://www.w3.org/TR/2001/REC-SVG-20010904/DTD/svg10.dtd">
<svg version="1.0" xmlns="http://www.w3.org/2000/svg"
 width="260.000000pt" height="260.000000pt" viewBox="0 0 260.000000 260.000000"
 preserveAspectRatio="xMidYMid meet">
<metadata>
Created by potrace 1.11, written by Peter Selinger 2001-2013
</metadata>
<g transform="translate(0.000000,260.000000) scale(0.100000,-0.100000)"
fill="#000000" stroke="none">
<path d="M2044 2176 l-178 -177 68 -68 68 -69 64 67 64 66 1 -110 c0 -61 1
-139 2 -175 l2 -65 88 0 87 -1 0 175 0 175 65 -64 65 -65 67 67 67 67 -177
177 -176 177 -177 -177z"/>
<path d="M776 2191 c-2 -3 -14 -64 -26 -136 -12 -71 -25 -134 -29 -138 -4 -4
-58 28 -119 73 -61 44 -114 80 -119 80 -5 0 -81 -73 -171 -163 l-162 -162 80
-112 c44 -61 80 -116 80 -122 0 -13 -15 -17 -146 -36 -61 -9 -117 -20 -124
-25 -9 -6 -12 -62 -12 -234 0 -125 1 -229 4 -231 2 -2 33 -9 68 -14 122 -20
145 -23 160 -26 8 -2 23 -4 33 -4 34 -2 30 -9 -110 -203 l-34 -47 160 -161
c88 -88 166 -160 173 -160 8 0 60 34 118 75 58 41 108 75 112 75 11 0 17 -13
23 -51 3 -19 10 -59 15 -89 5 -30 12 -73 16 -95 3 -22 8 -42 10 -44 2 -2 105
-4 230 -5 251 -1 237 -5 248 69 9 57 26 155 32 187 3 16 10 28 16 28 5 0 57
-34 114 -75 57 -41 110 -75 117 -75 13 0 327 310 327 323 0 5 -36 58 -80 119
-45 61 -77 115 -73 119 4 4 40 13 78 19 39 7 84 14 100 17 17 2 46 8 65 12
l35 7 2 231 c2 259 8 237 -72 248 -22 2 -51 7 -65 10 -14 3 -45 8 -70 11 -85
12 -87 16 -34 92 26 37 63 87 81 111 18 24 33 48 33 54 0 19 -314 325 -330
322 -9 -2 -63 -37 -121 -79 -99 -72 -119 -79 -125 -44 -1 7 -4 29 -7 48 -4 19
-11 69 -18 110 -6 41 -15 80 -21 87 -6 8 -73 11 -234 11 -124 -1 -226 -4 -228
-7z m338 -149 c3 -5 8 -28 11 -53 26 -183 19 -172 136 -223 66 -28 58 -30 179
56 l81 58 69 -69 c39 -38 70 -75 70 -83 0 -8 -13 -33 -28 -54 -16 -21 -45 -62
-65 -91 l-36 -52 25 -58 c50 -116 37 -106 164 -129 l115 -20 3 -107 c2 -90 0
-107 -13 -108 -8 -1 -18 -2 -22 -3 -5 -1 -46 -8 -93 -15 -92 -15 -120 -25
-120 -44 0 -7 -13 -40 -29 -73 -34 -72 -36 -66 53 -189 l57 -79 -75 -75 -75
-75 -58 40 c-32 21 -66 46 -76 55 -48 44 -61 44 -149 7 -94 -39 -87 -26 -115
-223 -3 -22 -7 -42 -9 -44 -3 -3 -50 -5 -105 -6 -114 -1 -111 -3 -122 85 -10
75 -24 150 -28 154 -2 2 -40 18 -83 36 -90 38 -73 42 -202 -48 l-76 -54 -30
29 c-65 60 -118 115 -118 120 0 3 27 44 61 91 33 47 63 91 66 98 4 10 -49 157
-61 172 -2 1 -54 11 -117 23 -62 11 -116 22 -118 25 -3 3 -6 50 -6 105 -1 92
1 100 20 104 21 5 131 24 180 32 17 3 33 8 37 11 8 8 68 153 68 165 0 5 -26
46 -58 90 -32 45 -61 89 -65 98 -3 11 18 39 67 88 l72 72 91 -66 c94 -67 124
-76 159 -50 10 8 26 15 34 15 30 2 83 36 86 55 2 11 5 34 8 50 3 17 8 48 12
70 3 22 8 47 9 55 2 8 4 21 4 28 1 14 206 18 215 4z"/>
<path d="M717 1427 l-128 -131 210 -210 211 -211 210 210 210 210 -132 132
-133 133 -75 -75 c-42 -41 -79 -75 -84 -75 -5 0 -42 34 -83 75 -41 41 -76 75
-77 74 0 0 -59 -60 -129 -132z"/>
</g>
</svg>
